<?xml version="1.0" encoding="UTF-8"?>
<svg width="657px" height="450px" viewBox="0 0 657 450" version="1.1" xmlns="http://www.w3.org/2000/svg" xmlns:xlink="http://www.w3.org/1999/xlink">
    <!-- Generator: Sketch 58 (84663) - https://sketch.com -->
    <title>Combined Shape</title>
    <desc>Created with Sketch.</desc>
    <g id="Artboard" stroke="none" stroke-width="1" fill="none" fill-rule="evenodd">
        <g id="Club-List" transform="translate(-633.000000, -90.000000)" fill="#FFFFFF">
            <g id="Image" transform="translate(0.000000, 90.000000)">
                <path d="M1127,-3.30654636e-14 L767,360 L450,677 L450,633.818256 L766.818256,317 L767,317 L767,316.818256 L1083.81826,-2.5133106e-14 L1127,-3.30654636e-14 Z M1205.83497,472.691552 L1205.83497,480.326831 L1142.18075,543.981055 L1086.1618,600 L1078.52652,600 L1142.18075,536.345776 L1205.83497,472.691552 Z M1290,240 L930,600 L930,556.818256 L1246.81826,240 L1290,240 Z M1237.66208,356.699411 L1110.35363,484.007859 L1110.35363,468.737301 L1222.39152,356.699411 L1237.66208,356.699411 Z M1042.83497,232.691552 L1042.83497,240.326831 L979.180747,303.981055 L923.161801,360 L915.526523,360 L979.180747,296.345776 L1042.83497,232.691552 Z M1074.66208,116.699411 L947.353635,244.007859 L947.353635,228.737301 L1059.39152,116.699411 L1074.66208,116.699411 Z" id="Combined-Shape"></path>
            </g>
        </g>
    </g>
</svg>